<mxfile host="app.diagrams.net" modified="2024-02-29T08:31:30.870Z" agent="Mozilla/5.0 (Windows NT 10.0; Win64; x64) AppleWebKit/537.36 (KHTML, like Gecko) Chrome/121.0.0.0 Safari/537.36" etag="4ciQ1uWIWaGRSXtj0ozN" version="23.1.7" type="device">
  <diagram name="Pagina-1" id="2sLVLplXf9lWvbswDMqE">
    <mxGraphModel dx="1235" dy="655" grid="1" gridSize="10" guides="1" tooltips="1" connect="1" arrows="1" fold="1" page="1" pageScale="1" pageWidth="827" pageHeight="1169" math="0" shadow="0">
      <root>
        <mxCell id="0" />
        <mxCell id="1" parent="0" />
        <mxCell id="6qHJoP9foDTwg0yhQD8w-1" value="Start" style="ellipse;whiteSpace=wrap;html=1;" vertex="1" parent="1">
          <mxGeometry x="330" y="40" width="120" height="80" as="geometry" />
        </mxCell>
        <mxCell id="6qHJoP9foDTwg0yhQD8w-5" style="edgeStyle=orthogonalEdgeStyle;rounded=0;orthogonalLoop=1;jettySize=auto;html=1;entryX=0.5;entryY=0;entryDx=0;entryDy=0;" edge="1" parent="1" source="6qHJoP9foDTwg0yhQD8w-2" target="6qHJoP9foDTwg0yhQD8w-4">
          <mxGeometry relative="1" as="geometry" />
        </mxCell>
        <mxCell id="6qHJoP9foDTwg0yhQD8w-2" value="Wat is je naam?" style="shape=parallelogram;perimeter=parallelogramPerimeter;whiteSpace=wrap;html=1;fixedSize=1;" vertex="1" parent="1">
          <mxGeometry x="390" y="160" width="120" height="60" as="geometry" />
        </mxCell>
        <mxCell id="6qHJoP9foDTwg0yhQD8w-10" style="edgeStyle=orthogonalEdgeStyle;rounded=0;orthogonalLoop=1;jettySize=auto;html=1;exitX=0;exitY=0.5;exitDx=0;exitDy=0;entryX=1;entryY=0.5;entryDx=0;entryDy=0;" edge="1" parent="1" source="6qHJoP9foDTwg0yhQD8w-4" target="6qHJoP9foDTwg0yhQD8w-9">
          <mxGeometry relative="1" as="geometry" />
        </mxCell>
        <mxCell id="6qHJoP9foDTwg0yhQD8w-4" value="ingevoerde naam" style="rhombus;whiteSpace=wrap;html=1;" vertex="1" parent="1">
          <mxGeometry x="400" y="260" width="80" height="80" as="geometry" />
        </mxCell>
        <mxCell id="6qHJoP9foDTwg0yhQD8w-6" value="dubbele naam" style="shape=parallelogram;perimeter=parallelogramPerimeter;whiteSpace=wrap;html=1;fixedSize=1;" vertex="1" parent="1">
          <mxGeometry x="510" y="250" width="120" height="60" as="geometry" />
        </mxCell>
        <mxCell id="6qHJoP9foDTwg0yhQD8w-7" style="edgeStyle=orthogonalEdgeStyle;rounded=0;orthogonalLoop=1;jettySize=auto;html=1;entryX=0.023;entryY=0.877;entryDx=0;entryDy=0;entryPerimeter=0;" edge="1" parent="1" source="6qHJoP9foDTwg0yhQD8w-4" target="6qHJoP9foDTwg0yhQD8w-6">
          <mxGeometry relative="1" as="geometry" />
        </mxCell>
        <mxCell id="6qHJoP9foDTwg0yhQD8w-8" style="edgeStyle=orthogonalEdgeStyle;rounded=0;orthogonalLoop=1;jettySize=auto;html=1;entryX=0.992;entryY=0.448;entryDx=0;entryDy=0;entryPerimeter=0;" edge="1" parent="1" source="6qHJoP9foDTwg0yhQD8w-6" target="6qHJoP9foDTwg0yhQD8w-2">
          <mxGeometry relative="1" as="geometry" />
        </mxCell>
        <mxCell id="6qHJoP9foDTwg0yhQD8w-11" style="edgeStyle=orthogonalEdgeStyle;rounded=0;orthogonalLoop=1;jettySize=auto;html=1;exitX=0.5;exitY=0;exitDx=0;exitDy=0;entryX=0.25;entryY=0;entryDx=0;entryDy=0;" edge="1" parent="1" source="6qHJoP9foDTwg0yhQD8w-9" target="6qHJoP9foDTwg0yhQD8w-2">
          <mxGeometry relative="1" as="geometry" />
        </mxCell>
        <mxCell id="6qHJoP9foDTwg0yhQD8w-16" style="edgeStyle=orthogonalEdgeStyle;rounded=0;orthogonalLoop=1;jettySize=auto;html=1;exitX=0.5;exitY=1;exitDx=0;exitDy=0;entryX=0.5;entryY=0;entryDx=0;entryDy=0;" edge="1" parent="1" source="6qHJoP9foDTwg0yhQD8w-9" target="6qHJoP9foDTwg0yhQD8w-15">
          <mxGeometry relative="1" as="geometry" />
        </mxCell>
        <mxCell id="6qHJoP9foDTwg0yhQD8w-9" value="wil je nog meer namen" style="shape=parallelogram;perimeter=parallelogramPerimeter;whiteSpace=wrap;html=1;fixedSize=1;" vertex="1" parent="1">
          <mxGeometry x="250" y="270" width="120" height="60" as="geometry" />
        </mxCell>
        <mxCell id="6qHJoP9foDTwg0yhQD8w-12" style="edgeStyle=orthogonalEdgeStyle;rounded=0;orthogonalLoop=1;jettySize=auto;html=1;exitX=1;exitY=1;exitDx=0;exitDy=0;entryX=0.631;entryY=-0.054;entryDx=0;entryDy=0;entryPerimeter=0;" edge="1" parent="1" source="6qHJoP9foDTwg0yhQD8w-1" target="6qHJoP9foDTwg0yhQD8w-2">
          <mxGeometry relative="1" as="geometry" />
        </mxCell>
        <mxCell id="6qHJoP9foDTwg0yhQD8w-13" value="Ja" style="text;html=1;align=center;verticalAlign=middle;resizable=0;points=[];autosize=1;strokeColor=none;fillColor=none;" vertex="1" parent="1">
          <mxGeometry x="300" y="198" width="40" height="30" as="geometry" />
        </mxCell>
        <mxCell id="6qHJoP9foDTwg0yhQD8w-14" value="Nee" style="text;html=1;align=center;verticalAlign=middle;resizable=0;points=[];autosize=1;strokeColor=none;fillColor=none;" vertex="1" parent="1">
          <mxGeometry x="260" y="330" width="50" height="30" as="geometry" />
        </mxCell>
        <mxCell id="6qHJoP9foDTwg0yhQD8w-18" style="edgeStyle=orthogonalEdgeStyle;rounded=0;orthogonalLoop=1;jettySize=auto;html=1;exitX=0;exitY=0.5;exitDx=0;exitDy=0;entryX=0.669;entryY=1.021;entryDx=0;entryDy=0;entryPerimeter=0;" edge="1" parent="1" source="6qHJoP9foDTwg0yhQD8w-15" target="6qHJoP9foDTwg0yhQD8w-19">
          <mxGeometry relative="1" as="geometry">
            <mxPoint x="200" y="270" as="targetPoint" />
          </mxGeometry>
        </mxCell>
        <mxCell id="6qHJoP9foDTwg0yhQD8w-23" style="edgeStyle=orthogonalEdgeStyle;rounded=0;orthogonalLoop=1;jettySize=auto;html=1;exitX=0.5;exitY=1;exitDx=0;exitDy=0;entryX=0.5;entryY=0;entryDx=0;entryDy=0;" edge="1" parent="1" source="6qHJoP9foDTwg0yhQD8w-15" target="6qHJoP9foDTwg0yhQD8w-22">
          <mxGeometry relative="1" as="geometry" />
        </mxCell>
        <mxCell id="6qHJoP9foDTwg0yhQD8w-15" value="&amp;lt; 3 naam" style="rhombus;whiteSpace=wrap;html=1;" vertex="1" parent="1">
          <mxGeometry x="260" y="360" width="100" height="100" as="geometry" />
        </mxCell>
        <mxCell id="6qHJoP9foDTwg0yhQD8w-17" value="True" style="text;html=1;align=center;verticalAlign=middle;resizable=0;points=[];autosize=1;strokeColor=none;fillColor=none;" vertex="1" parent="1">
          <mxGeometry x="210" y="410" width="50" height="30" as="geometry" />
        </mxCell>
        <mxCell id="6qHJoP9foDTwg0yhQD8w-20" style="edgeStyle=orthogonalEdgeStyle;rounded=0;orthogonalLoop=1;jettySize=auto;html=1;exitX=0.5;exitY=0;exitDx=0;exitDy=0;entryX=0;entryY=0.5;entryDx=0;entryDy=0;" edge="1" parent="1" source="6qHJoP9foDTwg0yhQD8w-19" target="6qHJoP9foDTwg0yhQD8w-1">
          <mxGeometry relative="1" as="geometry" />
        </mxCell>
        <mxCell id="6qHJoP9foDTwg0yhQD8w-19" value="minimaal 3 namen" style="shape=parallelogram;perimeter=parallelogramPerimeter;whiteSpace=wrap;html=1;fixedSize=1;" vertex="1" parent="1">
          <mxGeometry x="120" y="200" width="120" height="60" as="geometry" />
        </mxCell>
        <mxCell id="6qHJoP9foDTwg0yhQD8w-21" value="False" style="text;html=1;align=center;verticalAlign=middle;resizable=0;points=[];autosize=1;strokeColor=none;fillColor=none;" vertex="1" parent="1">
          <mxGeometry x="230" y="468" width="50" height="30" as="geometry" />
        </mxCell>
        <mxCell id="6qHJoP9foDTwg0yhQD8w-26" style="edgeStyle=orthogonalEdgeStyle;rounded=0;orthogonalLoop=1;jettySize=auto;html=1;exitX=0.5;exitY=1;exitDx=0;exitDy=0;entryX=0.5;entryY=0;entryDx=0;entryDy=0;" edge="1" parent="1" source="6qHJoP9foDTwg0yhQD8w-22" target="6qHJoP9foDTwg0yhQD8w-24">
          <mxGeometry relative="1" as="geometry" />
        </mxCell>
        <mxCell id="6qHJoP9foDTwg0yhQD8w-22" value="lootjes trekken" style="rhombus;whiteSpace=wrap;html=1;" vertex="1" parent="1">
          <mxGeometry x="230" y="510" width="150" height="130" as="geometry" />
        </mxCell>
        <mxCell id="6qHJoP9foDTwg0yhQD8w-30" style="edgeStyle=orthogonalEdgeStyle;rounded=0;orthogonalLoop=1;jettySize=auto;html=1;exitX=1;exitY=0.5;exitDx=0;exitDy=0;entryX=0.5;entryY=0;entryDx=0;entryDy=0;" edge="1" parent="1" source="6qHJoP9foDTwg0yhQD8w-24" target="6qHJoP9foDTwg0yhQD8w-27">
          <mxGeometry relative="1" as="geometry" />
        </mxCell>
        <mxCell id="6qHJoP9foDTwg0yhQD8w-24" value="iedereen een lootje" style="rhombus;whiteSpace=wrap;html=1;" vertex="1" parent="1">
          <mxGeometry x="225" y="680" width="160" height="150" as="geometry" />
        </mxCell>
        <mxCell id="6qHJoP9foDTwg0yhQD8w-32" style="edgeStyle=orthogonalEdgeStyle;rounded=0;orthogonalLoop=1;jettySize=auto;html=1;exitX=0;exitY=0.5;exitDx=0;exitDy=0;entryX=1;entryY=0;entryDx=0;entryDy=0;" edge="1" parent="1" source="6qHJoP9foDTwg0yhQD8w-27" target="6qHJoP9foDTwg0yhQD8w-31">
          <mxGeometry relative="1" as="geometry" />
        </mxCell>
        <mxCell id="6qHJoP9foDTwg0yhQD8w-27" value="lootje van jezelf?&lt;br&gt;dan krijg je een andere" style="rhombus;whiteSpace=wrap;html=1;" vertex="1" parent="1">
          <mxGeometry x="431" y="781" width="175" height="160" as="geometry" />
        </mxCell>
        <mxCell id="6qHJoP9foDTwg0yhQD8w-35" style="edgeStyle=orthogonalEdgeStyle;rounded=0;orthogonalLoop=1;jettySize=auto;html=1;exitX=0;exitY=1;exitDx=0;exitDy=0;" edge="1" parent="1" source="6qHJoP9foDTwg0yhQD8w-31" target="6qHJoP9foDTwg0yhQD8w-34">
          <mxGeometry relative="1" as="geometry" />
        </mxCell>
        <mxCell id="6qHJoP9foDTwg0yhQD8w-31" value="Een lijst printen met iedereen zijn lootje" style="rhombus;whiteSpace=wrap;html=1;" vertex="1" parent="1">
          <mxGeometry x="215" y="850" width="165" height="150" as="geometry" />
        </mxCell>
        <mxCell id="6qHJoP9foDTwg0yhQD8w-34" value="Einde" style="ellipse;whiteSpace=wrap;html=1;" vertex="1" parent="1">
          <mxGeometry x="20" y="980" width="160" height="120" as="geometry" />
        </mxCell>
      </root>
    </mxGraphModel>
  </diagram>
</mxfile>
